<svg width="862" height="862" viewBox="0 0 862 862" fill="none" xmlns="http://www.w3.org/2000/svg">
<path fill-rule="evenodd" clip-rule="evenodd" d="M431 37C213.4 37 37 213.4 37 431C37 648.6 213.4 825 431 825C648.6 825 825 648.6 825 431C825 213.4 648.6 37 431 37ZM0 431C0 192.965 192.965 0 431 0C669.035 0 862 192.965 862 431C862 669.035 669.035 862 431 862C192.965 862 0 669.035 0 431Z" fill="white"/>
<path fill-rule="evenodd" clip-rule="evenodd" d="M431 37C213.4 37 37 213.4 37 431C37 648.6 213.4 825 431 825C648.6 825 825 648.6 825 431C825 213.4 648.6 37 431 37ZM0 431C0 192.965 192.965 0 431 0C669.035 0 862 192.965 862 431C862 669.035 669.035 862 431 862C192.965 862 0 669.035 0 431Z" fill="white"/>
<path fill-rule="evenodd" clip-rule="evenodd" d="M431 37C213.4 37 37 213.4 37 431C37 648.6 213.4 825 431 825C648.6 825 825 648.6 825 431C825 213.4 648.6 37 431 37ZM0 431C0 192.965 192.965 0 431 0C669.035 0 862 192.965 862 431C862 669.035 669.035 862 431 862C192.965 862 0 669.035 0 431Z" fill="white"/>
<path fill-rule="evenodd" clip-rule="evenodd" d="M431 162C282.435 162 162 282.435 162 431C162 579.565 282.435 700 431 700C579.565 700 700 579.565 700 431C700 282.435 579.565 162 431 162ZM125 431C125 262.001 262.001 125 431 125C599.999 125 737 262.001 737 431C737 599.999 599.999 737 431 737C262.001 737 125 599.999 125 431Z" fill="white"/>
<path fill-rule="evenodd" clip-rule="evenodd" d="M431 162C282.435 162 162 282.435 162 431C162 579.565 282.435 700 431 700C579.565 700 700 579.565 700 431C700 282.435 579.565 162 431 162ZM125 431C125 262.001 262.001 125 431 125C599.999 125 737 262.001 737 431C737 599.999 599.999 737 431 737C262.001 737 125 599.999 125 431Z" fill="white"/>
<path fill-rule="evenodd" clip-rule="evenodd" d="M431 162C282.435 162 162 282.435 162 431C162 579.565 282.435 700 431 700C579.565 700 700 579.565 700 431C700 282.435 579.565 162 431 162ZM125 431C125 262.001 262.001 125 431 125C599.999 125 737 262.001 737 431C737 599.999 599.999 737 431 737C262.001 737 125 599.999 125 431Z" fill="white"/>
<path fill-rule="evenodd" clip-rule="evenodd" d="M431 284C349.814 284 284 349.814 284 431C284 512.186 349.814 578 431 578C512.186 578 578 512.186 578 431C578 349.814 512.186 284 431 284ZM247 431C247 329.38 329.38 247 431 247C532.62 247 615 329.38 615 431C615 532.62 532.62 615 431 615C329.38 615 247 532.62 247 431Z" fill="white"/>
<path fill-rule="evenodd" clip-rule="evenodd" d="M431 284C349.814 284 284 349.814 284 431C284 512.186 349.814 578 431 578C512.186 578 578 512.186 578 431C578 349.814 512.186 284 431 284ZM247 431C247 329.38 329.38 247 431 247C532.62 247 615 329.38 615 431C615 532.62 532.62 615 431 615C329.38 615 247 532.62 247 431Z" fill="white"/>
<path fill-rule="evenodd" clip-rule="evenodd" d="M431 284C349.814 284 284 349.814 284 431C284 512.186 349.814 578 431 578C512.186 578 578 512.186 578 431C578 349.814 512.186 284 431 284ZM247 431C247 329.38 329.38 247 431 247C532.62 247 615 329.38 615 431C615 532.62 532.62 615 431 615C329.38 615 247 532.62 247 431Z" fill="white"/>
<path d="M656.5 203.5C656.5 236.637 629.637 263.5 596.5 263.5C563.363 263.5 536.5 236.637 536.5 203.5C536.5 170.363 563.363 143.5 596.5 143.5C629.637 143.5 656.5 170.363 656.5 203.5Z" fill="white"/>
</svg>
